<?xml version="1.0" encoding="UTF-8"?>
<svg width="256" height="256" viewBox="0 0 256 256"
     xmlns="http://www.w3.org/2000/svg"
     role="img"
     aria-label="ParthenonChain Symbol">

  <!-- Base -->
  <rect x="32" y="204" width="192" height="14" rx="7" fill="#B08D57"/>

  <!-- Pediment -->
  <path d="M128 34 L228 68 L28 68 Z" fill="#B08D57"/>

  <!-- Entablature -->
  <rect x="40" y="72" width="176" height="14" rx="7" fill="#B08D57"/>
  <rect x="52" y="90" width="152" height="12" rx="6" fill="#B08D57"/>

  <!-- Columns (5) -->
  <rect x="48"  y="104" width="18" height="100" rx="9" fill="#1F3A5F"/>
  <rect x="88"  y="104" width="18" height="100" rx="9" fill="#1F3A5F"/>
  <rect x="128" y="88"  width="18" height="116" rx="9" fill="#1F3A5F"/>
  <rect x="168" y="104" width="18" height="100" rx="9" fill="#1F3A5F"/>
  <rect x="208" y="104" width="18" height="100" rx="9" fill="#1F3A5F"/>

  <!-- Capitals -->
  <rect x="42"  y="96" width="30" height="10" rx="5" fill="#B08D57"/>
  <rect x="82"  y="96" width="30" height="10" rx="5" fill="#B08D57"/>
  <rect x="122" y="80" width="30" height="10" rx="5" fill="#B08D57"/>
  <rect x="162" y="96" width="30" height="10" rx="5" fill="#B08D57"/>
  <rect x="202" y="96" width="30" height="10" rx="5" fill="#B08D57"/>

  <!-- Blockchain motif -->
  <g fill="none" stroke="#B08D57" stroke-width="4" stroke-linecap="round" stroke-linejoin="round">
    <rect x="78"  y="146" width="22" height="22" rx="6"/>
    <rect x="117" y="146" width="22" height="22" rx="6"/>
    <rect x="156" y="146" width="22" height="22" rx="6"/>
    <path d="M100 157 H117"/>
    <path d="M139 157 H156"/>
  </g>
</svg>
