<?xml version="1.0" encoding="UTF-8"?>
<svg width="256" height="256" viewBox="0 0 256 256" xmlns="http://www.w3.org/2000/svg" role="img" aria-label="Parthenon Mobile Adaptive Foreground">
  <!-- Adaptive-safe layout (≈12.5% padding on all sides) -->

  <!-- Content scaled into safe zone -->
  <g transform="translate(32 32) scale(0.75)">

    <!-- Device frame -->
    <rect x="66" y="18" width="124" height="220" rx="26"
          fill="none"
          stroke="#1F3A5F"
          stroke-width="6"
          stroke-linejoin="round"/>

    <!-- Speaker -->
    <rect x="108" y="30" width="40" height="6" rx="3" fill="#1F3A5F"/>

    <!-- Gesture bar -->
    <rect x="104" y="220" width="48" height="6" rx="3" fill="#1F3A5F"/>

    <!-- Temple mark -->
    <g transform="translate(128 128)">
      <path d="M0 -34 L44 -10 L-44 -10 Z" fill="#B08D57"/>

      <rect x="-46" y="-10" width="92" height="10" rx="5" fill="#B08D57"/>
      <rect x="-36" y="2" width="72" height="8" rx="4" fill="#B08D57"/>

      <rect x="-26" y="14" width="12" height="40" rx="6" fill="#1F3A5F"/>
      <rect x="-6"  y="14" width="12" height="40" rx="6" fill="#1F3A5F"/>
      <rect x="14"  y="14" width="12" height="40" rx="6" fill="#1F3A5F"/>

      <rect x="-30" y="8" width="20" height="8" rx="4" fill="#B08D57"/>
      <rect x="-10" y="8" width="20" height="8" rx="4" fill="#B08D57"/>
      <rect x="10"  y="8" width="20" height="8" rx="4" fill="#B08D57"/>

      <rect x="-50" y="56" width="100" height="10" rx="5" fill="#B08D57"/>
    </g>

  </g>
</svg>
