<?xml version="1.0" encoding="UTF-8"?>
<svg width="256" height="256" viewBox="0 0 256 256"
     xmlns="http://www.w3.org/2000/svg"
     role="img"
     aria-label="OBOLOS Token (Bronze Brand Edition)">

  <!-- Coin body -->
  <circle cx="128" cy="128" r="104" fill="#1F3A5F"/>

  <!-- Bronze rim -->
  <circle cx="128" cy="128" r="92"
          fill="none"
          stroke="#B08D57"
          stroke-width="4"/>

  <!-- Omega (Ω) -->
  <path d="M86 170
           V126
           C86 92 104 76 128 76
           C152 76 170 92 170 126
           V170"
        fill="none"
        stroke="#B08D57"
        stroke-width="10"
        stroke-linecap="round"
        stroke-linejoin="round"/>

  <!-- Omega base feet -->
  <rect x="78" y="166" width="28" height="10" rx="5" fill="#B08D57"/>
  <rect x="150" y="166" width="28" height="10" rx="5" fill="#B08D57"/>

  <!-- Energy / computation rays -->
  <g fill="none"
     stroke="#B08D57"
     stroke-width="4"
     stroke-linecap="round">
    <path d="M128 34 V50"/>
    <path d="M176 50 L164 62"/>
    <path d="M222 128 H206"/>
    <path d="M176 206 L164 194"/>
    <path d="M128 222 V206"/>
    <path d="M80 206 L92 194"/>
    <path d="M34 128 H50"/>
    <path d="M80 50 L92 62"/>
  </g>
</svg>
